<?xml version="1.0" encoding="UTF-8" standalone="no"?>
<!-- Created with Inkscape (http://www.inkscape.org/) -->

<svg
   xmlns:dc="http://purl.org/dc/elements/1.1/"
   xmlns:cc="http://creativecommons.org/ns#"
   xmlns:rdf="http://www.w3.org/1999/02/22-rdf-syntax-ns#"
   xmlns:svg="http://www.w3.org/2000/svg"
   xmlns="http://www.w3.org/2000/svg"
   xmlns:sodipodi="http://sodipodi.sourceforge.net/DTD/sodipodi-0.dtd"
   xmlns:inkscape="http://www.inkscape.org/namespaces/inkscape"
   width="112.88889mm"
   height="112.88889mm"
   viewBox="0 0 399.99999 399.99999"
   id="svg2"
   version="1.1"
   inkscape:version="0.91 r13725"
   sodipodi:docname="BC.svg">
  <defs
     id="defs4" />
  <sodipodi:namedview
     id="base"
     pagecolor="#ffffff"
     bordercolor="#666666"
     borderopacity="1.0"
     inkscape:pageopacity="0.0"
     inkscape:pageshadow="2"
     inkscape:zoom="0.61731182"
     inkscape:cx="69.902582"
     inkscape:cy="124.79709"
     inkscape:document-units="px"
     inkscape:current-layer="layer1"
     showgrid="false"
     inkscape:window-width="1276"
     inkscape:window-height="755"
     inkscape:window-x="4"
     inkscape:window-y="0"
     inkscape:window-maximized="1"
     fit-margin-top="0"
     fit-margin-left="0"
     fit-margin-right="0"
     fit-margin-bottom="0" />
  <metadata
     id="metadata7">
    <rdf:RDF>
      <cc:Work
         rdf:about="">
        <dc:format>image/svg+xml</dc:format>
        <dc:type
           rdf:resource="http://purl.org/dc/dcmitype/StillImage" />
        <dc:title></dc:title>
      </cc:Work>
    </rdf:RDF>
  </metadata>
  <g
     inkscape:label="Layer 1"
     inkscape:groupmode="layer"
     id="layer1"
     transform="translate(-108.57143,-192.36222)">
    <g
       id="g4201"
       transform="translate(842.85714,-31.428571)">
      <path
         style="fill:#fbfbfb"
         d="m -734.28571,423.79079 0,-200 200,0 200,0 0,200 0,200 -200,0 -200,0 0,-200 z"
         id="path4217"
         inkscape:connector-curvature="0" />
      <path
         style="fill:#caafb9"
         d="m -734.28571,423.79079 0,-200 200,0 200,0 0,200 0,200 -200,0 -200,0 0,-200 z m 163.44555,130.59508 c 13.61558,-4.0295 22.13683,-11.08235 24.98751,-20.68161 2.28624,-7.69862 2.32095,-85.54608 0.0421,-94.45337 -2.0246,-7.91352 -5.94713,-13.4807 -11.22697,-15.93422 -5.03939,-2.34178 -5.48988,-4.76892 -1.21388,-6.54009 4.41344,-1.82811 10.48614,-9.22907 12.08291,-14.72574 1.06932,-3.68104 1.38277,-13.37897 1.38277,-42.78252 l 0,-38.02246 -3.292,-6.68556 c -5.46354,-11.09566 -14.95044,-17.5 -31.70799,-21.40519 -6.69545,-1.56031 -11.99518,-1.85602 -32.5,-1.81345 -21.77674,0.0452 -52.89462,2.18009 -59.25,4.06491 -1.65507,0.49084 -1.75,7.59735 -1.75,131.01249 l 0,130.49349 48.25,-0.38356 c 42.39854,-0.33704 48.97104,-0.59694 54.19555,-2.14312 z m -54.98811,-27.84539 c -0.26388,-0.68766 -0.36226,-20.15016 -0.21861,-43.25 l 0.26117,-41.99969 12.54686,0 c 14.30474,0 16.89692,0.95999 19.78667,7.32778 1.44744,3.18957 1.66647,8.00947 1.66647,36.67222 0,37.00816 -0.20869,38.22686 -7.0343,41.07878 -4.49458,1.87795 -26.30025,2.01595 -27.00826,0.17091 z m 0.28738,-116.3382 c -0.40965,-0.40965 -0.74482,-20.18972 -0.74482,-43.95571 0,-38.96966 0.16227,-43.3456 1.65324,-44.58334 1.1606,-0.96348 4.66189,-1.37244 11.75,-1.37244 11.9297,0 15.89375,1.66639 19.09676,8.02784 1.87935,3.73254 2,5.96288 2,36.97216 0,31.02151 -0.11991,33.23595 -2,36.93547 -3.5256,6.93744 -6.01585,8.01895 -19.3246,8.39269 -6.42716,0.18048 -12.02092,-0.007 -12.43058,-0.41667 z m 199.79927,143.89344 c 15.17531,-4.24006 24.49693,-11.45316 28.44791,-22.0131 1.8248,-4.8772 2.008,-7.78022 2.008,-31.81844 l 0,-26.45158 -8.75,0.48795 c -4.8125,0.26837 -14.89341,0.7572 -22.40201,1.08629 l -13.65201,0.59834 -0.37506,21.15281 c -0.39784,22.43743 -0.83344,24.63919 -5.75601,29.09406 -3.06521,2.77397 -12.61753,3.3394 -17.47497,1.03439 -7.53328,-3.57477 -7.05819,2.93144 -7.36012,-100.79385 -0.17427,-59.86709 0.0863,-94.14217 0.73405,-96.54763 0.55233,-2.05118 2.36922,-5.03716 4.03753,-6.63551 2.55909,-2.45177 4.00766,-2.96089 9.26595,-3.25666 4.93338,-0.2775 6.90003,0.0684 9.4341,1.65949 6.15243,3.86287 6.74046,6.29021 7.12715,29.42018 l 0.34811,20.82167 12.66164,-0.71103 c 6.96391,-0.39106 16.93665,-0.98582 22.16165,-1.32167 l 9.5,-0.61064 0.31111,-21 c 0.3409,-23.01077 -0.41436,-29.0198 -4.63275,-36.8588 -4.67972,-8.69631 -13.51218,-14.51773 -27.67836,-18.24265 -9.78066,-2.57177 -45.6584,-2.64843 -55.75002,-0.11912 -18.01816,4.51599 -28.54427,14.28147 -31.78894,29.49183 -0.65121,3.0527 -0.91168,40.70408 -0.73489,106.22874 l 0.27385,101.5 2.3858,5.27943 c 4.60401,10.18797 14.7029,16.71754 30.6142,19.79398 10.99625,2.12612 47.82585,1.30715 57.04409,-1.26848 z"
         id="path4215"
         inkscape:connector-curvature="0" />
      <path
         style="fill:#b48f9c"
         d="m -734.28571,423.79079 0,-200 200,0 200,0 0,200 0,200 -200,0 -200,0 0,-200 z m 163.45683,131.59274 c 12.6914,-3.75645 20.18799,-9.13293 24.24021,-17.38483 l 2.80296,-5.70791 0,-45.5 c 0,-41.78397 -0.15196,-45.93623 -1.86068,-50.84126 -2.1955,-6.30241 -6.81553,-11.91659 -11.3737,-13.82112 -1.79609,-0.75045 -3.26562,-1.76566 -3.26562,-2.25602 0,-0.49036 2.03508,-2.08419 4.52239,-3.54185 5.61709,-3.29184 8.92971,-8.19839 10.99592,-16.28681 1.34836,-5.27834 1.54821,-11.86871 1.28876,-42.5 l -0.30707,-36.25294 -2.87952,-6.23431 c -5.32452,-11.52785 -16.00464,-18.91269 -33.12048,-22.90137 -14.1007,-3.28603 -71.91648,-1.88404 -91.75,2.22487 l -2.75,0.56972 0,131.4809 0,131.48091 48.75,-0.38243 c 42.91792,-0.33667 49.46263,-0.59335 54.70683,-2.14555 z m -53.96834,-29.76215 c -0.28124,-0.73289 -0.3937,-19.78209 -0.24992,-42.33156 l 0.26143,-40.99903 10.777,-0.28411 c 12.81438,-0.33781 16.57905,0.94571 19.39178,6.61138 1.59556,3.21394 1.86644,6.98303 2.16851,30.17273 0.44243,33.96486 -0.0928,40.13429 -3.84649,44.33905 l -2.82186,3.16095 -12.58456,0.33156 c -9.79731,0.25812 -12.69781,0.0364 -13.09589,-1.00097 z m 0.17818,-116.49726 c -1.22238,-1.22238 -0.78078,-86.14477 0.45192,-86.90662 0.61523,-0.38023 5.0324,-0.91449 9.81595,-1.18723 11.14973,-0.63573 16.69539,1.44714 19.63748,7.37556 1.78654,3.59996 1.92798,6.30586 1.92798,36.88496 0,31 -0.12121,33.24242 -2,37 -2.98529,5.97058 -6.86887,7.49656 -19.08333,7.49845 -5.54584,8.5e-4 -10.38334,-0.29845 -10.75,-0.66512 z m 198.33333,146.16934 c 15.47082,-4.16347 25.83429,-12.09835 29.86239,-22.86442 2.05638,-5.49618 2.15604,-7.19578 1.90379,-32.46901 l -0.26618,-26.66924 -14,0.36993 c -7.7,0.20347 -18.05,0.65347 -23,1 l -9,0.63007 -0.51598,21.5 c -0.42982,17.90984 -0.80836,22.03987 -2.26693,24.73307 -2.54623,4.70155 -6.82335,6.57196 -13.86373,6.0627 -6.79872,-0.49177 -10.27364,-3.04944 -11.8493,-8.72151 -0.6245,-2.24807 -0.98683,-37.52432 -0.97652,-95.07426 0.0157,-87.73121 0.0946,-91.67232 1.91584,-95.68368 2.28436,-5.03146 6.20574,-7.31632 12.55662,-7.31632 5.81521,0 9.97802,2.13465 12.2212,6.26693 1.47365,2.71467 1.80959,6.52007 2.09519,23.73307 0.18708,11.275 0.70952,20.88209 1.16098,21.3491 0.76577,0.79214 38.81261,-0.87173 43.77263,-1.91428 2.24863,-0.47264 2.25,-0.48595 2.25,-21.90465 0,-12.04313 -0.49204,-23.75316 -1.12321,-26.73095 -4.64841,-21.93091 -23.63185,-31.86635 -60.69915,-31.76834 -29.1777,0.0771 -45.34788,5.72459 -54.40821,19.00212 -7.08125,10.37726 -6.83747,5.91916 -6.53798,119.56371 l 0.26855,101.90329 2.3818,5.27011 c 4.79714,10.61446 15.56545,17.69951 31.6182,20.8033 10.34126,1.99948 47.72401,1.29103 56.5,-1.07074 z"
         id="path4213"
         inkscape:connector-curvature="0" />
      <path
         style="fill:#a57486"
         d="m -734.28571,423.79079 0,-200 200,0 200,0 0,200 0,200 -200,0 -200,0 0,-200 z m 160.5,132.64892 c 9.93045,-2.32094 18.66862,-6.89752 23.37226,-12.24114 7.16401,-8.13874 7.34127,-9.28664 7.86131,-50.90778 0.52605,-42.10188 -0.23537,-52.91751 -4.31198,-61.24979 -2.32402,-4.75014 -7.25657,-9.64975 -11.73642,-11.65808 -0.7759,-0.34783 -0.49451,-0.97347 0.81483,-1.81172 5.45304,-3.49106 11.44333,-10.84527 13.00619,-15.96753 2.09325,-6.8606 3.28427,-60.4507 1.65756,-74.58215 -2.36944,-20.58375 -13.58994,-31.37158 -37.85899,-36.39914 -8.89272,-1.84221 -12.3163,-1.98299 -36.80476,-1.5135 -26.94918,0.51667 -53.78093,2.84024 -56.22544,4.86901 -1.85528,1.53975 -1.87952,260.79694 -0.0246,262.68562 2.02668,2.06353 90.82266,0.97954 100.25,-1.2238 z m -50.25,-30.75476 c -1.76921,-1.83171 -1.81704,-80.92712 -0.05,-82.69416 1.55103,-1.55103 16.92413,-1.46162 22.19374,0.12908 2.14156,0.64645 4.84156,2.44399 6,3.99453 2.02454,2.70977 2.11857,4.08707 2.42356,35.49777 0.34207,35.22913 -0.0587,38.9802 -4.47315,41.87269 -3.40888,2.23359 -24.17352,3.18856 -26.09415,1.20009 z m 0,-116.99755 c -1.7702,-1.8362 -1.81809,-83.92852 -0.05,-85.69661 0.77573,-0.77573 4.78936,-1.2 11.35212,-1.2 8.91886,0 10.56488,0.27776 13.55,2.28656 5.73209,3.85733 6.0323,6.13585 5.69685,43.23794 -0.32638,36.09986 -0.33603,36.16039 -6.39327,40.12924 -3.4043,2.23058 -22.26781,3.20116 -24.1557,1.24287 z m 184.75,149.1093 c 22.78617,-2.62089 35.71884,-9.59876 42.208,-22.77349 l 3.292,-6.68363 0.33351,-27.27373 c 0.29511,-24.13272 0.15155,-27.34356 -1.24649,-27.88004 -0.869,-0.33347 -11.52392,-0.1793 -23.67761,0.34259 -17.11729,0.73503 -22.29834,1.26594 -22.9882,2.35564 -0.48982,0.77371 -0.89748,10.3087 -0.9059,21.18887 -0.0168,21.72583 -0.69514,25.15154 -5.61913,28.37786 -3.63569,2.3822 -12.9309,2.34622 -16.60981,-0.0643 -5.39873,-3.53738 -5.25961,-1.08638 -5.56486,-98.03866 -0.19615,-62.30154 0.0531,-91.56305 0.8112,-95.21457 1.84269,-8.87623 9.72967,-13.28316 18.32942,-10.24177 7.63388,2.69979 8.07134,4.15427 8.63787,28.71925 l 0.5,21.68007 18.58306,-0.30902 c 10.22068,-0.16996 20.79568,-0.62621 23.5,-1.0139 l 4.91694,-0.70488 0,-25.51092 0,-25.51093 -3.292,-6.6832 c -5.08354,-10.32027 -13.58691,-16.4975 -28.208,-20.49154 -9.49529,-2.59383 -49.50964,-2.59303 -59,0.001 -13.50312,3.6911 -23.46141,10.84774 -27.92525,20.06879 -4.99281,10.31378 -5.03879,11.34752 -5.05739,113.72076 -0.0118,64.82585 0.33359,97.4648 1.07367,101.46828 3.35131,18.12891 16.42836,27.74134 41.40897,30.43813 10.41384,1.12423 26.88409,1.13919 36.5,0.0332 z"
         id="path4211"
         inkscape:connector-curvature="0" />
      <path
         style="fill:#8f5367"
         d="m -734.28571,423.79079 0,-200 200,0 200,0 0,200 0,200 -200,0 -200,0 0,-200 z m 157.61901,133.46319 c 15.92246,-2.75531 26.06382,-9.04466 31.0909,-19.28159 l 2.79009,-5.6816 0,-46 c 0,-45.48058 -0.0256,-46.06322 -2.26516,-51.5985 -2.30259,-5.69098 -7.97105,-12.36561 -11.43533,-13.46513 -2.50994,-0.79663 -2.03033,-1.82555 2.16333,-4.64108 4.91305,-3.29851 8.74506,-9.29307 10.57465,-16.54235 1.32344,-5.24379 1.52733,-12.06924 1.26958,-42.5 -0.29957,-35.36781 -0.36314,-36.37502 -2.60378,-41.25294 -3.72259,-8.10416 -7.12773,-12.28406 -13.44232,-16.50079 -12.68009,-8.46743 -30.80502,-11.65398 -60.76097,-10.68238 -18.03344,0.5849 -46.47886,3.05589 -52.5,4.56057 l -3,0.74969 -0.25715,130.93646 c -0.14143,72.01505 -0.043,131.49895 0.21862,132.18645 0.76583,2.01212 86.31698,1.76214 98.15754,-0.28681 z m -47.61901,-72.96538 0,-41.66531 11.98002,0.33375 c 11.22694,0.31277 12.13709,0.491 14.47875,2.83523 3.79299,3.79716 4.54581,10.47308 4.49768,39.88501 -0.066,40.3075 0.33308,39.44502 -18.48141,39.94507 l -12.47504,0.33155 0,-41.6653 z m 0,-118.43654 0,-42.93872 4.51382,-0.67689 c 7.58244,-1.13706 17.12544,-0.10328 20.22541,2.19098 5.6569,4.18664 5.76077,4.9234 5.76077,40.86336 0,29.02538 -0.20644,33.456 -1.71401,36.78599 -2.40551,5.31341 -6.31772,6.71401 -18.75387,6.71401 l -10.03212,0 0,-42.93873 z m 198,190.4414 c 14.76632,-3.97387 25.64246,-11.83882 30.14759,-21.80088 2.26248,-5.00293 2.36412,-6.27685 2.65872,-33.32319 0.24464,-22.45937 0.0433,-28.21236 -1,-28.57316 -1.58756,-0.54902 -42.4254,0.95833 -45.47175,1.67838 -2.12529,0.50235 -2.17175,0.91519 -2.50574,22.26401 -0.3776,24.13635 -1.00523,26.83996 -6.78671,29.23473 -4.14844,1.71834 -13.44335,0.86928 -16.021,-1.46346 -1.10544,-1.0004 -2.4599,-3.43896 -3.00992,-5.41901 -0.6329,-2.27843 -1.00208,-37.09229 -1.00561,-94.82985 -0.005,-81.86346 0.16115,-91.64646 1.61837,-95.28842 1.98883,-4.97058 5.53513,-6.98182 12.31061,-6.98182 4.08088,0 5.61488,0.52063 8.10275,2.75 4.24672,3.80547 4.91117,7.76631 4.93883,29.44098 0.0147,11.47311 0.41371,18.93192 1.03338,19.3149 1.53714,0.95001 45.31163,-1.64058 46.74048,-2.76612 1.63819,-1.29044 1.74096,-41.3274 0.12562,-48.94054 -1.63223,-7.69276 -4.99975,-13.70626 -10.61861,-18.96205 -5.76837,-5.39563 -8.5352,-6.94899 -17.30658,-9.7163 -17.64221,-5.566 -49.16858,-5.56627 -66.95043,-5.8e-4 -15.08451,4.72143 -25.03598,15.10083 -27.95325,29.1553 -0.7485,3.60599 -1.00115,36.69849 -0.81559,106.82581 l 0.26884,101.60139 3.5,6.86097 c 5.5195,10.81973 14.9488,16.80948 31.5,20.00965 10.34126,1.99948 47.72401,1.29103 56.5,-1.07074 z"
         id="path4209"
         inkscape:connector-curvature="0" />
      <path
         style="fill:#843b54"
         d="m -734.28571,423.79079 0,-200 200,0 200,0 0,200 0,200 -200,0 -200,0 0,-200 z m 162,133.30864 c 18.93336,-5.00738 27.45936,-13.0787 29.9352,-28.3388 1.3055,-8.04655 1.35353,-73.7715 0.0612,-83.72108 -0.51803,-3.98819 -1.90793,-9.49693 -3.08868,-12.24165 -1.97159,-4.58309 -7.65126,-10.93427 -11.0161,-12.31853 -1.1213,-0.4613 -1.06193,-0.78193 0.30563,-1.6507 8.27189,-5.25489 12.39742,-12.7471 13.8166,-25.09183 1.26234,-10.98044 1.23361,-59.46052 -0.0405,-68.27293 -2.69851,-18.66496 -15.29129,-30.00899 -38.66859,-34.83409 -8.81748,-1.81994 -12.47315,-1.97715 -36.30476,-1.56129 -30.53994,0.53292 -55.76811,2.93145 -57.75,5.4905 -0.98538,1.27234 -1.25,29.26327 -1.25,132.22289 0,103.13974 0.26289,130.87729 1.25,131.88516 0.99067,1.01151 11.00064,1.18705 48.25,0.8461 42.85239,-0.39223 47.66185,-0.60523 54.5,-2.41375 z m -51.49504,-32.43511 c -0.29059,-0.75727 -0.41058,-19.37611 -0.26665,-41.37519 l 0.26169,-39.99834 10,0.005 c 5.98298,0.003 11.25183,0.53179 13.11631,1.31594 5.78054,2.43114 5.88369,3.14658 5.88369,40.8088 l 0,34.32525 -2.70672,2.70634 c -2.56353,2.56318 -3.31647,2.72968 -14.23334,3.14755 -9.16991,0.351 -11.63465,0.15969 -12.05498,-0.93566 z m 0.24504,-116.42521 c -0.4125,-0.42991 -0.75,-19.55851 -0.75,-42.508 0,-37.12648 0.17437,-41.79326 1.58179,-42.33333 0.86998,-0.33384 5.61733,-0.60699 10.54966,-0.60699 17.74656,0 17.88759,0.33864 17.81211,42.77024 -0.0389,21.87904 -0.42699,32.78728 -1.25,35.1361 -2.04036,5.82304 -5.06607,7.22814 -16.81772,7.80995 -5.70671,0.28252 -10.71334,0.16194 -11.12584,-0.26797 z m 185.27623,150.52963 c 9.38806,-1.13233 20.3775,-4.12295 26.3537,-7.17178 6.45314,-3.29214 13.10629,-10.28597 16.24026,-17.07186 l 2.87924,-6.23431 0.28201,-27 c 0.16134,-15.44669 -0.11477,-27.59478 -0.64526,-28.39 -1.35056,-2.02453 -47.85523,-0.16555 -49.20488,1.96692 -0.49537,0.7827 -0.90826,10.64808 -0.91754,21.92308 -0.0197,24.00473 -0.68917,26.57772 -7.49276,28.79921 -9.06765,2.96074 -15.92993,-0.9242 -17.56172,-9.94222 -0.65936,-3.64394 -0.92158,-37.29844 -0.74018,-95 0.26454,-84.15353 0.38667,-89.55083 2.09732,-92.68577 4.43609,-8.12961 18.13435,-8.0631 22.01126,0.10688 1.39012,2.92946 1.67232,6.90379 1.67232,23.5516 0,22.88535 0.0974,23.19013 7.2038,22.54506 2.36291,-0.21449 12.59936,-0.83722 22.74768,-1.38385 10.14831,-0.54662 18.83936,-1.38175 19.31345,-1.85584 0.47409,-0.47409 0.72093,-12.28593 0.54853,-26.24853 l -0.31346,-25.38654 -2.87952,-6.23431 c -5.01812,-10.86448 -14.29746,-17.74817 -29.62048,-21.97337 -9.4657,-2.61009 -49.4649,-2.62142 -59,-0.0167 -19.50307,5.32766 -30.25487,16.51942 -33.00322,34.35372 -0.70618,4.58241 -0.96522,39.50935 -0.77779,104.87068 0.27004,94.17278 0.35696,98.2102 2.22568,103.38242 3.67836,10.18085 13.95198,18.89172 26.57626,22.5336 11.41985,3.29445 35.92377,4.50158 52.0053,2.56192 z"
         id="path4207"
         inkscape:connector-curvature="0" />
      <path
         style="fill:#792844"
         d="m -734.28571,423.79079 0,-200 200,0 200,0 0,200 0,200 -200,0 -200,0 0,-200 z m 156,135.07086 c 15.29464,-2.67543 25.76502,-8.11023 31.19182,-16.19055 5.59811,-8.33537 5.80927,-10.38682 5.79631,-56.31181 -0.0125,-44.37056 -0.26579,-47.34062 -4.79177,-56.19271 -2.0345,-3.97916 -7.37201,-9.37579 -9.27309,-9.37579 -1.89209,0 -0.7648,-1.58189 3.05051,-4.28066 2.68877,-1.90191 4.97319,-4.89649 7.22865,-9.47582 l 3.29757,-6.69515 0.30642,-37.40911 c 0.2902,-35.42877 0.1971,-37.76901 -1.75859,-44.20771 -4.63712,-15.26671 -16.78022,-24.44561 -38.54783,-29.13811 -13.11649,-2.82756 -77.25175,-0.62863 -91.30839,3.13058 l -2.69161,0.71983 -0.25748,132.42807 c -0.24369,125.33592 -0.16336,132.49976 1.5,133.76652 1.42918,1.08841 9.97673,1.24793 45.75748,0.85394 26.05341,-0.28689 46.6512,-0.94827 50.5,-1.62152 z m -45,-74.57086 0,-40.5 9.53212,0 c 11.55111,0 15.55106,1.3968 17.54561,6.12699 1.99192,4.72397 2.08243,64.80963 0.10468,69.49329 -1.8672,4.42186 -4.84589,5.37972 -16.72946,5.37972 l -10.45295,0 0,-40.5 z m 0,-118.28652 0,-41.96348 3.125,-0.625 c 4.89609,-0.97922 14.03456,-0.62987 17.82562,0.68144 2.16607,0.74924 4.21353,2.49649 5.5,4.69356 1.90571,3.25463 2.07313,5.42791 2.3881,31 0.39504,32.07223 -0.46755,41.08216 -4.30038,44.9187 -2.40708,2.40941 -3.30994,2.60384 -13.55857,2.91978 l -10.97977,0.33847 0,-41.96347 z m 193.80476,191.76641 c 17.06413,-3.37922 28.45973,-10.71477 33.9233,-21.83703 l 2.77194,-5.64286 0.30479,-29.12199 c 0.25517,-24.38041 0.0745,-29.21034 -1.10943,-29.66467 -1.60149,-0.61455 -43.98361,0.99376 -47.44536,1.80045 -2.23564,0.52097 -2.25,0.64516 -2.25,19.45604 0,28.35367 -1.2686,31.97326 -11.50355,32.82202 -6.5463,0.54287 -9.95163,-1.24367 -12.07998,-6.33751 -2.09447,-5.01278 -2.11541,-184.84578 -0.0221,-189.85577 2.00066,-4.78825 5.121,-6.59857 11.37359,-6.59857 4.26805,0 5.79308,0.47013 7.69522,2.37227 3.75119,3.75119 4.52527,8.77526 4.53124,29.40911 0.005,16.3491 0.23738,19.37034 1.52978,19.86628 2.1761,0.83505 45.624,-1.72565 47.7258,-2.81282 1.58557,-0.82016 1.75,-2.95616 1.75,-22.73353 0,-12.00558 -0.45679,-24.25225 -1.01508,-27.21482 -2.9745,-15.7841 -13.54991,-25.81105 -32.83081,-31.12813 -6.65603,-1.83553 -10.45765,-2.117 -29.15411,-2.15857 -24.02359,-0.0534 -30.39033,0.94372 -41.92526,6.56622 -11.24972,5.48347 -18.48312,14.87067 -21.07759,27.35361 -0.6955,3.34627 -0.95226,39.01603 -0.77022,107 l 0.27307,101.98038 2.16089,4.67567 c 4.84549,10.48453 15.28821,18.18492 29.08909,21.45011 15.12159,3.57765 40.98029,3.73538 58.05478,0.35411 z"
         id="path4205"
         inkscape:connector-curvature="0" />
      <path
         style="fill:#79203e"
         d="m -734.28571,423.79079 0,-200 200,0 200,0 0,200 0,200 -200,0 -200,0 0,-200 z m 163,134.34002 c 15.74657,-4.18175 22.70577,-9.24334 27.89188,-20.28641 l 2.60812,-5.55361 0,-45 c 0,-41.87542 -0.13655,-45.45133 -1.96663,-51.5 -1.56996,-5.18893 -3.01916,-7.55894 -7.18479,-11.75 -2.86998,-2.8875 -4.84928,-5.25 -4.39845,-5.25 2.00966,0 9.29011,-9.00629 11.31723,-14 2.17453,-5.35684 2.23264,-6.48909 2.23264,-43.5 0,-41.46825 -0.21355,-43.33366 -6.01223,-52.51938 -12.24896,-19.40361 -43.89127,-25.33446 -103.48777,-19.39715 -22.15139,2.20684 -24.40319,2.52452 -25.75,3.6328 -0.98847,0.81341 -1.25,28.60303 -1.25,132.82439 0,72.48767 0.28601,132.5411 0.63558,133.45206 0.58256,1.51812 4.69103,1.6222 49.25,1.24767 44.5933,-0.37482 49.23478,-0.57337 56.11442,-2.40037 z m -51,-73.1703 0,-40.13162 2.55952,-0.64239 c 3.19897,-0.8029 15.8832,0.39325 18.94015,1.78609 4.79173,2.18326 5.00033,3.82901 5.00033,39.44974 l 0,33.32435 -2.56851,2.56784 c -2.33786,2.33724 -3.52773,2.62216 -13.25,3.17272 l -10.68149,0.60489 0,-40.13162 z m -0.22744,-117.27414 c -0.14991,-22.21757 0.0808,-41.18308 0.51262,-42.14558 0.65297,-1.45532 2.13178,-1.75 8.78212,-1.75 9.92881,0 14.09999,1.59626 16.01043,6.12699 1.97398,4.68142 2.09554,68.1943 0.13709,71.62301 -2.3593,4.13048 -5.61599,5.37457 -15.63373,5.97223 l -9.53598,0.56893 -0.27255,-40.39558 z m 194.72744,190.65149 c 18.06287,-4.03585 29.89494,-12.69087 34.24124,-25.04707 1.52025,-4.32192 1.75876,-8.86504 1.75876,-33.5 l 0,-28.5 -23.93302,0.34433 c -13.16316,0.18939 -24.97566,0.74075 -26.25,1.22525 l -2.31698,0.88092 -0.002,21.27475 c -0.002,24.76117 -0.64491,27.34312 -7.35627,29.53426 -4.50105,1.46952 -10.35306,0.32243 -12.94036,-2.5365 -3.4384,-3.79939 -3.77813,-13.8079 -3.48684,-102.72301 0.28016,-85.516 0.31983,-87.05926 2.32588,-90.47399 4.51959,-7.69332 15.54016,-7.70785 19.45932,-0.0256 1.80573,3.53952 1.99982,5.89402 1.99982,24.2598 0,14.06274 0.35695,20.69679 1.15662,21.49646 0.76328,0.76328 3.73899,0.99428 8.75,0.67927 4.17636,-0.26254 15.22385,-0.92939 24.54997,-1.48187 11.31681,-0.67042 17.21539,-1.41188 17.73469,-2.22927 1.16919,-1.84034 0.96511,-38.43995 -0.26431,-47.40239 -1.37802,-10.049 -4.05239,-15.4671 -11.09005,-22.46866 -6.50439,-6.47102 -15.96804,-10.7122 -28.83647,-12.9232 -10.77388,-1.85112 -38.45462,-1.65173 -49.28946,0.35504 -16.13005,2.98752 -29.20175,11.77599 -34.12699,22.94452 -4.65462,10.55488 -4.74597,13.01818 -4.40467,118.76989 l 0.32112,99.5 3.12373,6.59245 c 6.28029,13.25416 18.24107,20.37675 38.37627,22.85289 10.95485,1.34718 42.0681,0.4857 50.5,-1.39827 z"
         id="path4203"
         inkscape:connector-curvature="0" />
    </g>
  </g>
</svg>
